HIERARCHY
ROOT Hips
{
	OFFSET -0.001795 -0.223333 0.028219
	CHANNELS 6 Xposition Yposition Zposition Zrotation Yrotation Xrotation 
	JOINT LeftUpLeg
	{
		OFFSET 0.069520 -0.091406 -0.006815
		CHANNELS 3 Zrotation Yrotation Xrotation
		JOINT LeftLeg
		{
			OFFSET 0.034277 -0.375199 -0.004496
			CHANNELS 3 Zrotation Yrotation Xrotation
			JOINT LeftFoot
			{
				OFFSET -0.013596 -0.397961 -0.043693
				CHANNELS 3 Zrotation Yrotation Xrotation
				JOINT LeftToe
				{
					OFFSET 0.026358 -0.055791 0.119288
					CHANNELS 3 Zrotation Yrotation Xrotation
					End Site
					{
						OFFSET 0.000000 0.000000 0.000000
					}
				}
			}
		}
	}
	JOINT RightUpLeg
	{
		OFFSET -0.067670 -0.090522 -0.004320
		CHANNELS 3 Zrotation Yrotation Xrotation
		JOINT RightLeg
		{
			OFFSET -0.038290 -0.382569 -0.008850
			CHANNELS 3 Zrotation Yrotation Xrotation
			JOINT RightFoot
			{
				OFFSET 0.015774 -0.398415 -0.042312
				CHANNELS 3 Zrotation Yrotation Xrotation
				JOINT RightToe
				{
					OFFSET -0.025372 -0.048144 0.123348
					CHANNELS 3 Zrotation Yrotation Xrotation
					End Site
					{
						OFFSET 0.000000 0.000000 0.000000
					}
				}
			}
		}
	}
	JOINT Spine
	{
		OFFSET -0.002533 0.108963 -0.026696
		CHANNELS 3 Zrotation Yrotation Xrotation
		JOINT Spine1
		{
			OFFSET 0.005487 0.135180 0.001092
			CHANNELS 3 Zrotation Yrotation Xrotation
			JOINT Spine2
			{
				OFFSET 0.001457 0.052922 0.025425
				CHANNELS 3 Zrotation Yrotation Xrotation
				JOINT Neck
				{
					OFFSET -0.002778 0.213870 -0.042857
					CHANNELS 3 Zrotation Yrotation Xrotation
					JOINT Head
					{
						OFFSET 0.005152 0.064970 0.051349
						CHANNELS 3 Zrotation Yrotation Xrotation
						End Site
						{
							OFFSET 0.000000 0.000000 0.000000
						}
					}
				}
				JOINT LeftShoulder
				{
					OFFSET 0.078845 0.121749 -0.034090
					CHANNELS 3 Zrotation Yrotation Xrotation
					JOINT LeftArm
					{
						OFFSET 0.090977 0.030469 -0.008868
						CHANNELS 3 Zrotation Yrotation Xrotation
						JOINT LeftForeArm
						{
							OFFSET 0.259612 -0.012772 -0.027456
							CHANNELS 3 Zrotation Yrotation Xrotation
							JOINT LeftHand
							{
								OFFSET 0.249234 0.008986 -0.001171
								CHANNELS 3 Zrotation Yrotation Xrotation
								End Site
								{
									OFFSET 0.000000 0.000000 0.000000
								}
							}
						}
					}
				}
				JOINT RightShoulder
				{
					OFFSET -0.081759 0.118833 -0.038615
					CHANNELS 3 Zrotation Yrotation Xrotation
					JOINT RightArm
					{
						OFFSET -0.096012 0.032551 -0.009143
						CHANNELS 3 Zrotation Yrotation Xrotation
						JOINT RightForeArm
						{
							OFFSET -0.253742 -0.013329 -0.021401
							CHANNELS 3 Zrotation Yrotation Xrotation
							JOINT RightHand
							{
								OFFSET -0.255298 0.007772 -0.005559
								CHANNELS 3 Zrotation Yrotation Xrotation
								End Site
								{
									OFFSET 0.000000 0.000000 0.000000
								}
							}
						}
					}
				}
			}
		}
	}
}
MOTION
Frames: 13
Frame Time: 0.050000
0.000000 0.929570 0.000000 2.708751 20.320832 0.715295 -1.285800 0.587148 8.174854 -2.849587 0.128348 2.879533 5.712493 9.800259 -1.838885 0.000000 0.000000 0.000000 -1.476990 1.055263 -21.675620 5.526531 -1.719241 15.775596 -9.020568 -20.580208 6.186557 0.000000 0.000000 0.000000 5.688684 -0.618604 5.423460 4.521197 -2.071171 -1.037166 -8.918363 -0.981080 4.576573 7.434405 -2.308073 -15.581706 0.000000 0.000000 0.000000 -16.878919 -10.981096 1.162309 -39.203480 -16.630840 1.341906 -90.233738 -61.433139 60.047798 0.000000 0.000000 0.000000 10.100692 -3.896348 -1.404572 44.064758 -6.235655 -6.165579 104.457229 45.433966 65.254003 0.000000 0.000000 0.000000 
0.002575 0.928952 0.028458 2.816027 20.084331 1.448194 -1.486094 0.667029 9.182963 -2.063125 0.040098 3.573932 6.926598 11.684432 -2.662194 0.000000 0.000000 0.000000 -0.993398 1.156016 -20.328068 6.943748 -2.263243 16.805924 -10.464855 -23.648618 6.580343 0.000000 0.000000 0.000000 6.881182 -0.645479 4.691228 4.170026 -1.778603 -1.917691 -9.505715 -0.844795 4.428560 6.841964 -1.689508 -16.775842 0.000000 0.000000 0.000000 -16.278865 -10.186311 0.838357 -40.452809 -17.551544 1.619842 -100.563180 -61.826874 69.809458 0.000000 0.000000 0.000000 9.963976 -5.593033 -2.200638 44.427886 -8.600448 -6.893988 103.407127 43.623697 62.094237 0.000000 0.000000 0.000000 
0.003475 0.930648 0.058239 2.845361 16.610527 2.331727 -0.871143 0.554526 7.219572 -3.055483 0.011913 8.419314 7.602648 14.604384 1.104457 0.000000 0.000000 0.000000 -0.327537 1.395852 -19.460039 6.383595 -1.860291 16.662675 -11.005904 -25.039567 6.542833 0.000000 0.000000 0.000000 7.660003 -0.659791 4.224496 2.334379 -0.680856 -4.545855 -7.975084 -0.313519 6.320875 6.525843 -1.812644 -16.039743 0.000000 0.000000 0.000000 -15.520662 -7.809546 0.199086 -41.944306 -17.908211 1.501251 -114.054841 -61.426714 83.941473 0.000000 0.000000 0.000000 11.765093 -5.718796 -2.405844 43.011011 -10.801881 -7.650267 99.223338 43.818394 57.638678 0.000000 0.000000 0.000000 
0.002573 0.933415 0.087718 2.742022 15.249526 2.681304 1.252298 0.115733 2.676175 -7.326641 0.520829 17.556664 7.266960 15.272705 4.825790 0.000000 0.000000 0.000000 0.628818 1.511046 -17.599902 5.860327 -1.624910 16.686790 -10.511787 -24.634733 4.900108 0.000000 0.000000 0.000000 8.217473 -0.529631 2.727490 3.440859 -1.575734 -0.823351 -8.517203 -0.483603 2.596543 6.068797 -1.817740 -14.577031 0.000000 0.000000 0.000000 -16.109010 -5.561190 -0.848358 -41.807557 -17.228243 1.544534 -126.827544 -60.380921 98.063685 0.000000 0.000000 0.000000 10.825042 -5.282336 -2.345186 42.935633 -11.687756 -7.597891 97.383061 43.490636 54.872452 0.000000 0.000000 0.000000 
0.000010 0.936592 0.115105 2.353382 12.717691 2.010111 5.384120 -0.363979 -3.426824 -14.205475 2.621335 30.355705 7.123302 16.071774 9.087980 0.000000 0.000000 0.000000 3.063564 1.535582 -13.389500 3.310160 -0.634152 13.582596 -8.895034 -21.752924 2.864681 0.000000 0.000000 0.000000 8.900791 -0.579613 3.064213 2.456019 -0.977437 -2.263009 -7.048105 0.756248 4.271213 6.010936 -2.058127 -13.374502 0.000000 0.000000 0.000000 -16.179450 -6.259942 -0.388420 -41.265136 -15.896168 0.915483 -140.112839 -59.009623 114.978480 0.000000 0.000000 0.000000 10.923647 -5.432120 -2.426594 43.294096 -11.871211 -7.881444 92.879374 43.741492 51.390148 0.000000 0.000000 0.000000 
-0.002398 0.937487 0.139648 1.912431 9.666237 1.086838 7.951895 -0.584830 -11.240063 -18.175197 5.445413 42.617206 8.189729 17.925141 10.750121 0.000000 0.000000 0.000000 4.627314 1.314557 -10.051360 2.696448 -0.346813 11.633946 -7.318587 -18.434046 0.666139 0.000000 0.000000 0.000000 9.146493 -0.677710 4.108712 2.269971 -0.928768 -2.027288 -6.353645 2.581842 3.828620 7.683378 -3.205256 -12.998854 0.000000 0.000000 0.000000 -16.019562 -5.153864 -0.927225 -40.619394 -15.189042 0.681050 -144.720411 -57.287762 120.000712 0.000000 0.000000 0.000000 11.635720 -5.625628 -2.528986 43.263333 -10.755002 -7.571938 89.834589 44.446924 49.856858 0.000000 0.000000 0.000000 
-0.004068 0.938840 0.162007 2.076998 6.227412 -0.235062 8.741305 -0.597106 -17.073508 -18.161594 6.916927 48.015985 9.024803 18.940250 7.686648 0.000000 0.000000 0.000000 5.450286 0.805269 -5.969647 1.372209 0.019675 9.679150 -5.514453 -13.932122 -0.541631 0.000000 0.000000 0.000000 8.473942 -0.787778 5.936108 1.705742 -0.673945 -2.292692 -5.551498 3.971061 4.090829 9.533693 -4.339607 -13.704908 0.000000 0.000000 0.000000 -15.634553 -5.363702 -0.630367 -38.511406 -15.395751 0.628468 -145.207514 -58.282729 122.120845 0.000000 0.000000 0.000000 12.235993 -5.314195 -2.455018 42.497507 -8.682542 -6.917702 88.114491 44.858770 48.789732 0.000000 0.000000 0.000000 
-0.004602 0.941526 0.183461 2.164292 1.469331 -0.822087 8.131202 -0.620595 -22.438559 -14.801046 6.266937 46.641067 8.048733 17.096225 6.407368 0.000000 0.000000 0.000000 5.326920 0.438988 -3.674654 1.002807 0.173161 9.675624 -3.796074 -8.929774 -2.388980 0.000000 0.000000 0.000000 7.638674 -0.769338 6.739502 1.463834 -0.661879 -0.924463 -4.998598 5.458012 3.343497 9.974203 -5.162539 -11.693130 0.000000 0.000000 0.000000 -16.001470 -5.204453 -0.551346 -36.829525 -14.285465 0.284548 -137.468405 -60.424119 113.547272 0.000000 0.000000 0.000000 13.066605 -4.396382 -2.190398 42.512998 -5.322851 -5.908922 87.834507 45.420073 48.711777 0.000000 0.000000 0.000000 
-0.004081 0.944070 0.205025 2.052031 -2.649300 -1.098779 6.167964 -0.841492 -25.195964 -10.006585 3.779352 37.393320 6.599846 14.319732 5.704893 0.000000 0.000000 0.000000 5.279854 0.069748 -1.338336 0.104523 0.401694 9.655217 -1.999392 -3.632991 -2.994946 0.000000 0.000000 0.000000 7.384061 -0.834481 7.916058 0.704561 -0.315284 -0.975644 -3.712721 5.762347 3.042004 9.578903 -5.029526 -11.767825 0.000000 0.000000 0.000000 -15.749104 -4.772720 -0.281353 -36.463035 -14.561788 0.222388 -120.421311 -61.829717 94.282208 0.000000 0.000000 0.000000 12.168681 -3.351825 -1.938130 42.499371 -1.630116 -4.655042 89.660013 46.593430 50.318348 0.000000 0.000000 0.000000 
-0.002647 0.945724 0.228152 1.870384 -7.188989 -0.548204 4.536936 -0.942772 -25.970212 -5.299794 1.476521 23.920191 3.343252 8.924657 9.876403 0.000000 0.000000 0.000000 4.871920 -0.075475 -0.536973 -0.667849 0.578331 9.403441 -0.274070 1.862107 -3.764403 0.000000 0.000000 0.000000 7.063096 -0.782361 7.852939 0.143660 -0.068539 -0.193518 -2.705575 5.496025 2.278470 8.301961 -4.330614 -11.894280 0.000000 0.000000 0.000000 -16.343400 -4.672491 0.183092 -35.941281 -13.269184 -0.263384 -104.385159 -61.815029 78.045346 0.000000 0.000000 0.000000 11.668646 -2.566137 -1.929604 42.683524 0.694288 -3.764783 92.994572 47.310026 52.143425 0.000000 0.000000 0.000000 
-0.001068 0.945709 0.253727 2.219482 -10.760557 -1.310003 2.423210 -1.164517 -23.784509 -1.619357 0.181802 10.788799 -0.345731 2.600612 11.207553 0.000000 0.000000 0.000000 3.665811 -0.345409 1.855569 -1.223730 0.713702 9.506498 1.128990 6.427859 -4.235260 0.000000 0.000000 0.000000 6.449331 -0.832407 9.605885 -0.628631 0.283255 -1.195713 -2.003936 4.981082 3.267929 8.137740 -4.390558 -12.268323 0.000000 0.000000 0.000000 -16.389133 -5.086691 0.987511 -35.808082 -12.855452 -0.638399 -89.800154 -60.254823 63.622648 0.000000 0.000000 0.000000 11.625327 -3.131678 -2.518792 41.812452 3.238765 -2.868166 97.832500 46.869027 54.058938 0.000000 0.000000 0.000000 
0.000513 0.943926 0.281277 1.808482 -15.732998 -0.950110 2.640231 -0.836699 -22.601975 -0.078063 -0.048115 3.083764 -2.271228 -0.628882 13.122649 0.000000 0.000000 0.000000 2.647754 -0.450968 3.348012 -1.626255 0.734266 8.563581 2.312759 10.795695 -4.859433 0.000000 0.000000 0.000000 6.376746 -0.767736 9.365930 -1.219689 0.589510 0.042090 -1.995215 5.732074 2.629717 8.245707 -4.739909 -11.148874 0.000000 0.000000 0.000000 -15.311498 -4.810297 1.217906 -36.265386 -11.664364 -1.025537 -82.105838 -57.711744 55.115937 0.000000 0.000000 0.000000 12.242175 -2.294978 -2.470914 41.386447 3.557439 -2.620167 101.166090 46.448016 55.261508 0.000000 0.000000 0.000000 
0.002326 0.940677 0.310238 0.969613 -19.710334 -0.464852 2.175130 -0.744838 -21.142738 1.550031 -0.291623 2.531193 -1.869909 -0.756438 11.950985 0.000000 0.000000 0.000000 2.161211 -0.512982 4.607105 -1.904487 0.782199 8.441247 3.199245 14.592282 -5.610715 0.000000 0.000000 0.000000 5.891995 -0.707664 9.404567 -1.771111 0.901666 0.711698 -1.068861 5.891981 2.065895 7.361324 -4.518521 -9.343572 0.000000 0.000000 0.000000 -15.459245 -3.724153 1.045089 -35.937425 -9.678510 -1.639377 -81.825764 -55.640725 53.651867 0.000000 0.000000 0.000000 11.951925 -2.800468 -2.947720 40.491267 3.799275 -2.356469 102.590108 46.586799 55.344689 0.000000 0.000000 0.000000 
